<?xml version="1.0" encoding="UTF-8" standalone="no"?>
<svg
   xmlns:dc="http://purl.org/dc/elements/1.1/"
   xmlns:cc="http://creativecommons.org/ns#"
   xmlns:svg="http://www.w3.org/2000/svg"
   xmlns="http://www.w3.org/2000/svg"
   xmlns:xlink="http://www.w3.org/1999/xlink"
   width="48"
   height="48"
   viewBox="0 0 48.000001 47.999998"
   id="svg2"
   version="1.1">
  <g
     id="layer1"
     transform="translate(0,-1004.3622)">
    <path
       style="fill:none;fill-opacity:1;fill-rule:nonzero;stroke:#a40000;stroke-width:3;stroke-miterlimit:4;stroke-dasharray:none;stroke-opacity:1"
       d="m 24.178641,1049.6522 c -2.308343,1.1418 -5.780052,-0.3948 -6.622299,-3.9796 -1.410419,-6.0033 1.188184,-4.9833 0.82865,-10.0369 -6.237105,0 -11.9219239,0.7826 -11.9219239,-4.2874 0,-4.1755 4.8293019,-2.9892 4.8293019,-3.5158 0,-0.487 -5.3201996,0.7595 -5.3201996,-3.8517 0,-5.1732 5.9328296,-2.8657 5.9643066,-3.5872 0.02807,-0.6434 -5.1940946,1.7282 -5.1940946,-3.3238 0,-5.9045 15.7721236,-2.8642 19.1754566,-2.4039 3.68872,-11.4896 18.047056,7.9957 10.479854,10.8612 -3.579892,1.1128 -2.756029,3.9331 -4.468425,6.327 -2.208739,3.0876 -3.707766,3.6056 -6.51848,6.7326 -2.125719,2.3648 2.094342,9.4198 -1.232147,11.0655 z"/>
  </g>
</svg>
